<?xml version="1.0" encoding="UTF-8" standalone="no"?>
<svg
   height="24px"
   viewBox="0 0 24 24"
   width="24px"
   fill="#000000"
   version="1.1"
   id="svg16"
   sodipodi:docname="new_releases_black_24dp.svg"
   inkscape:version="1.2.1 (9c6d41e410, 2022-07-14)"
   xmlns:inkscape="http://www.inkscape.org/namespaces/inkscape"
   xmlns:sodipodi="http://sodipodi.sourceforge.net/DTD/sodipodi-0.dtd"
   xmlns="http://www.w3.org/2000/svg"
   xmlns:svg="http://www.w3.org/2000/svg">
  <defs
     id="defs20" />
  <sodipodi:namedview
     id="namedview18"
     pagecolor="#ffffff"
     bordercolor="#666666"
     borderopacity="1.0"
     inkscape:showpageshadow="2"
     inkscape:pageopacity="0.0"
     inkscape:pagecheckerboard="0"
     inkscape:deskcolor="#d1d1d1"
     showgrid="false"
     inkscape:zoom="22.627417"
     inkscape:cx="1.016466"
     inkscape:cy="4.5961941"
     inkscape:window-width="2160"
     inkscape:window-height="1346"
     inkscape:window-x="591"
     inkscape:window-y="2149"
     inkscape:window-maximized="1"
     inkscape:current-layer="svg16" />
  <path
     d="M0 0h24v24H0z"
     fill="none"
     id="path12" />
  <path
     d="m23 12-2.44-2.78.34-3.68-3.61-.82-1.89-3.18L12 3 8.6 1.54 6.71 4.72l-3.61.81.34 3.68L1 12l2.44 2.78-.34 3.69 3.61.82 1.89 3.18L12 21l3.4 1.46 1.89-3.18 3.61-.82-.34-3.68L23 12zm-10 5h-2v-2h2v2zm0-4h-2V7h2v6z"
     id="path14" />
  <path
     d="m 2.3949798,1.3457269 -1.27,1.27 C 6.438857,7.9540209 13.910632,15.332345 21.85498,23.345727 l 1.27,-1.27 C 16.21498,15.165727 9.3049801,8.2557269 2.3949798,1.3457269 Z"
     id="path251"
     sodipodi:nodetypes="ccccc" />
  <path
     style="fill:#ffffff;fill-opacity:1;stroke:#000000;stroke-width:0;stroke-linecap:butt;stroke-linejoin:miter;stroke-dasharray:none;stroke-opacity:1"
     d="M 6.2320194,1.9962367 22.960833,19.182677 21.683291,20.56827 4.4968499,3.4326773 Z"
     id="path3210"
     sodipodi:nodetypes="ccccc" />
</svg>
